PathFileType	4	(X/Y/Z)	 s05c0301.trc
DataRate	CameraRate	NumFrames	NumMarkers	Units	OrigDataRate	OrigDataStartFrame	OrigNumFrames
200	200	4	50	mm	200	751	2000
Frame#	Time	racr			lacr			c7			jug			rlel			rdr			llel			ldr			s2			lic			ric			lasi			rasi			rpsi			lpsi			rgt			lgt			rth1			rth2			rth3			rth4			rlfc			rmfc			rsh1			rsh2			rsh3			rsh4			rlmal			rmmal			rcal			rtoe			rmt5			lth1			lth2			lth4			lth3			llfc			lmfc			lsh1			lsh2			lsh3			lsh4			llmal			lmmal			lcal			ltoe			lmt5			SBIKE			LBIKE			RBIKE			
		X1	Y1	Z1	X2	Y2	Z2	X3	Y3	Z3	X4	Y4	Z4	X5	Y5	Z5	X6	Y6	Z6	X7	Y7	Z7	X8	Y8	Z8	X9	Y9	Z9	X10	Y10	Z10	X11	Y11	Z11	X12	Y12	Z12	X13	Y13	Z13	X14	Y14	Z14	X15	Y15	Z15	X16	Y16	Z16	X17	Y17	Z17	X18	Y18	Z18	X19	Y19	Z19	X20	Y20	Z20	X21	Y21	Z21	X22	Y22	Z22	X23	Y23	Z23	X24	Y24	Z24	X25	Y25	Z25	X26	Y26	Z26	X27	Y27	Z27	X28	Y28	Z28	X29	Y29	Z29	X30	Y30	Z30	X31	Y31	Z31	X32	Y32	Z32	X33	Y33	Z33	X34	Y34	Z34	X35	Y35	Z35	X36	Y36	Z36	X37	Y37	Z37	X38	Y38	Z38	X39	Y39	Z39	X40	Y40	Z40	X41	Y41	Z41	X42	Y42	Z42	X43	Y43	Z43	X44	Y44	Z44	X45	Y45	Z45	X46	Y46	Z46	X47	Y47	Z47	X48	Y48	Z48	X49	Y49	Z49	X50	Y50	Z50	
751	3.7550	751.476984	1332.732865	-146.471866	771.918605	1314.814675	-433.754022	757.645582	1398.403261	-304.757090	698.380514	1250.012487	-287.566833	590.990785	1130.764173	-2.188221	698.740475	924.289311	-65.551588	569.063532	1122.844325	-568.683957	695.686305	929.414228	-459.096251	173.005589	1251.923291	-333.186120	343.828701	1211.190371	-445.921810	299.023392	1284.108935	-174.645115	371.950444	1157.111669	-391.853475	323.193721	1209.631564	-186.099895	207.657158	1301.641754	-296.171995	227.720243	1283.331706	-379.519390	232.893960	1163.244159	-131.969012	252.254822	1123.282639	-462.600743	321.328427	1086.463411	-99.496983	400.947407	1049.387613	-81.928906	448.684811	976.417989	-69.321363	425.206501	1074.341021	-95.214549	542.665262	863.965757	-73.391994	546.079138	852.779752	-184.574993	445.972810	817.423266	-56.950200	389.318789	751.049156	-73.866647	310.390444	720.187808	-85.778755	411.271694	727.083200	-94.872567	207.881370	638.869987	-102.443341	243.870333	647.368306	-178.331691	147.896669	678.859676	-151.789730	267.513675	408.835449	-149.313218	199.353456	485.736653	-84.735068	273.579316	993.357359	-476.683831	300.701217	912.654927	-468.606133	334.894467	914.322647	-453.044073	280.547592	824.076545	-464.102428	278.839277	683.191837	-428.438748	247.286733	676.754912	-326.585320	227.784168	568.771389	-463.548092	228.697548	482.801990	-450.299857	186.714134	404.444150	-452.772385	256.367233	478.899519	-424.103902	169.782405	287.903650	-444.248276	187.337488	309.508769	-370.920515	100.388122	273.681498	-409.555268	363.914664	140.666593	-382.941477	262.125232	157.949511	-458.340294	-214.058446	914.662580	-268.498114	-43.615726	85.030029	-474.878029	-51.736921	80.249708	-77.411971	
752	3.7600	750.889700	1332.730995	-143.985949	772.875545	1316.246588	-430.911756	757.515003	1398.959755	-301.971890	698.231615	1250.335484	-285.723609	589.560837	1130.232943	-2.068485	698.521184	924.913324	-65.466288	571.319365	1124.083653	-568.111997	696.273390	929.119976	-459.137128	173.162627	1250.913479	-337.725345	346.565680	1210.140815	-447.570198	296.851184	1285.351762	-177.099579	373.612366	1156.673967	-392.852369	321.662166	1210.132716	-188.160470	207.459280	1301.303095	-301.476492	228.843454	1282.529709	-383.844680	231.479619	1163.616461	-135.274315	254.667901	1122.434555	-465.478007	321.307941	1088.760957	-102.727852	401.597257	1053.423448	-84.322884	450.542278	981.632082	-70.387859	425.490935	1078.880957	-97.518338	547.127847	871.405395	-74.127800	551.454860	860.207381	-184.515087	451.127045	823.869868	-58.025333	395.406391	756.720536	-74.538475	317.033792	724.582504	-86.656329	417.796218	732.656412	-95.025969	215.657655	641.354860	-103.079925	251.861092	650.122718	-178.565165	155.259750	680.347756	-152.545981	278.940724	412.425506	-148.949104	209.413564	488.276021	-84.754791	275.527042	993.341420	-478.700681	301.266136	912.783989	-470.553050	334.970436	913.278984	-454.121997	279.048770	824.094817	-466.009630	274.388749	682.596589	-431.729131	241.606759	677.076443	-329.306417	222.877120	568.601212	-466.724351	223.524964	482.648857	-453.324330	181.226074	404.495488	-456.201822	251.037607	478.776609	-426.952154	163.622644	287.708573	-446.812036	180.778269	308.775507	-372.835431	94.058003	275.436825	-412.324221	353.845781	136.250420	-382.442186	253.094882	154.994724	-458.892071	-214.133915	914.675801	-268.536937	-43.631119	85.033791	-474.898963	-51.750019	80.235710	-77.437802	
753	3.7650	750.403244	1332.443598	-141.481815	773.763261	1317.548705	-428.303877	757.455858	1399.300959	-299.240079	698.118981	1250.668593	-283.749864	588.199111	1129.664727	-2.529267	698.234998	925.596174	-65.410075	573.283347	1125.496682	-567.582496	696.674444	928.991956	-459.467701	173.331780	1250.697991	-342.551836	348.967692	1209.449734	-449.278761	294.231447	1285.267207	-180.243861	374.863264	1156.487003	-393.836763	319.941281	1210.813716	-190.194421	206.764571	1301.550352	-305.443739	230.268721	1282.045881	-387.004417	229.878753	1164.254721	-138.478369	256.725839	1121.962252	-468.514772	320.968284	1091.297591	-105.976791	401.832675	1057.465352	-86.495386	452.190849	986.471140	-72.714460	425.405380	1083.247350	-99.777590	551.013248	878.543865	-75.032509	555.656473	867.598875	-187.806216	455.866172	829.911039	-59.478066	401.091408	761.703475	-75.515331	323.418952	728.436800	-87.483716	423.778548	737.538456	-94.721399	223.378096	643.385309	-103.906890	259.476336	652.185388	-178.972213	162.683750	681.326840	-153.399473	290.157572	415.576358	-148.627747	219.505303	490.810879	-84.674468	277.527593	993.534883	-480.498530	302.172747	912.727687	-471.777662	335.454219	912.792537	-454.825112	278.839422	824.297075	-467.800838	271.241526	682.412518	-434.865600	237.780751	676.857065	-332.769975	219.052544	568.863496	-469.618847	219.117631	482.952946	-455.940019	176.422426	405.002345	-458.951276	246.575725	478.902878	-429.557894	157.679472	288.205474	-449.031013	174.761202	308.853602	-374.631374	87.824081	278.011757	-414.615010	343.627803	132.264640	-381.906251	243.920912	153.000864	-459.231937	-214.238143	914.668665	-268.516566	-43.649555	85.047863	-474.922053	-51.762818	80.258700	-77.426888	
754	3.7700	750.002549	1331.876931	-139.101549	774.535176	1318.606429	-425.670096	757.518774	1399.453415	-296.465757	697.964193	1250.618924	-281.874426	587.255284	1128.538467	-1.266162	697.896951	926.304563	-65.499999	575.016379	1126.812645	-567.203629	697.063303	928.955580	-460.099984	173.514376	1251.064856	-347.076924	350.976428	1209.266169	-450.936449	292.009320	1285.657894	-183.394178	375.701227	1156.746836	-394.979969	318.075850	1211.745458	-192.169923	205.987557	1302.767946	-309.111441	230.949638	1282.266150	-390.815622	228.250825	1165.217451	-141.657065	258.417650	1121.861571	-471.588307	320.000811	1093.795733	-108.841647	401.458625	1061.237190	-89.090912	452.836633	991.143010	-74.917721	424.673648	1087.440605	-102.254672	554.152592	885.374392	-75.728021	560.129947	873.123589	-187.664002	460.071319	835.547541	-61.182245	406.497581	766.266726	-76.602521	329.435391	731.621611	-88.487708	429.629035	742.360471	-95.275980	231.019567	645.075177	-104.947747	267.020087	653.789497	-179.660794	169.252744	681.498365	-154.322272	301.425433	418.141052	-148.318504	230.034779	492.812529	-84.167977	279.415863	993.887339	-482.035112	303.376731	912.796038	-472.760392	336.528200	912.897947	-455.477502	279.709236	824.571809	-469.254198	269.608705	682.665782	-437.569130	236.247625	676.603043	-335.098722	216.390095	569.535462	-471.986259	215.517273	483.629669	-458.137807	172.044408	406.110207	-461.183947	242.962290	479.271914	-431.856354	151.961558	289.379439	-450.945895	169.377548	309.780946	-376.289452	81.799490	281.135109	-416.598800	333.375473	128.958994	-381.463879	234.757696	151.766996	-459.503481	-214.331794	914.661163	-268.482835	-43.675422	85.073396	-474.912766	-51.783784	80.256851	-77.431595	
